<?xml version="1.0" standalone="no"?>
<!DOCTYPE svg PUBLIC "-//W3C//DTD SVG 20010904//EN" "http://www.w3.org/TR/2001/REC-SVG-20010904/DTD/svg10.dtd">
<svg version="1.0" xmlns="http://www.w3.org/2000/svg" width="700.000000pt" height="700.000000pt"
  viewBox="0 0 700.000000 700.000000" preserveAspectRatio="xMidYMid meet">
  <metadata>
    Created by potrace 1.14, written by Peter Selinger 2001-2017
  </metadata>
  <g transform="translate(0.000000,700.000000) scale(0.100000,-0.100000)" fill="#000000" stroke="none">
    <path d="M3280 6994 c-19 -2 -84 -9 -145 -14 -578 -56 -1180 -283 -1660 -625
-237 -169 -531 -446 -709 -670 -416 -521 -673 -1147 -748 -1820 -17 -155 -17
-575 0 -730 52 -469 198 -931 418 -1327 290 -523 731 -983 1239 -1294 439
-269 920 -432 1460 -496 145 -17 576 -17 730 0 822 91 1556 447 2131 1034 203
206 348 390 487 618 274 449 433 916 499 1465 16 136 16 592 0 730 -86 725
-352 1347 -803 1885 -122 145 -351 370 -494 484 -510 407 -1117 661 -1775 742
-117 15 -553 27 -630 18z m180 -1212 l0 -507 -36 -20 c-86 -46 -174 -193 -211
-350 -26 -117 -24 -350 6 -459 41 -154 107 -262 192 -317 l49 -32 0 -108 0
-107 -37 -7 c-48 -9 -98 -60 -113 -114 -25 -93 29 -191 115 -207 l32 -6 -68
-271 -68 -272 -673 -1145 -673 -1145 -153 -3 c-83 -1 -152 1 -152 5 0 11 730
2806 733 2810 2 1 20 -2 42 -8 61 -17 120 -3 167 39 50 45 68 85 68 152 0 93
-57 163 -145 177 -33 5 -36 8 -30 32 3 14 143 551 311 1193 167 642 304 1170
304 1173 0 3 77 5 170 5 l170 0 0 -508z m484 491 c12 -41 607 -2323 612 -2350
6 -29 4 -30 -35 -37 -48 -7 -108 -56 -127 -103 -61 -144 75 -305 221 -264 22
6 41 9 43 6 3 -2 165 -620 362 -1372 197 -752 362 -1385 368 -1406 l11 -38
-156 3 -155 3 -674 1145 -673 1145 -65 262 c-36 145 -66 267 -66 272 0 5 13
11 30 14 46 10 98 65 112 119 23 88 -34 188 -115 203 l-37 7 0 107 0 106 45
29 c86 54 157 167 197 314 31 113 31 382 0 497 -41 149 -106 252 -198 316
l-44 30 0 504 0 505 169 0 c153 0 170 -2 175 -17z m-1254 -1082 c-16 -62 -32
-117 -37 -121 -4 -4 -46 -32 -93 -62 -366 -235 -629 -612 -728 -1043 -91 -396
-28 -839 170 -1190 l40 -70 -28 -105 c-15 -58 -30 -111 -34 -119 -10 -19 -118
146 -185 284 -261 539 -257 1141 12 1674 90 180 177 303 313 444 121 127 209
201 333 281 83 55 257 149 263 143 2 -1 -10 -54 -26 -116z m1883 -72 c104 -73
279 -237 360 -337 300 -370 457 -864 418 -1323 -24 -290 -101 -550 -233 -784
-63 -112 -60 -113 -97 29 l-32 124 46 109 c95 221 143 485 132 728 -17 381
-161 741 -412 1035 -73 86 -194 197 -282 258 l-52 37 -30 122 c-17 67 -31 125
-31 129 0 10 117 -59 213 -127z m-379 -3160 c26 -45 46 -82 44 -84 -2 -2 -39
-18 -83 -35 -106 -42 -317 -95 -435 -110 -131 -16 -387 -13 -512 5 -114 17
-302 64 -365 92 l-41 18 45 78 c52 89 36 85 173 44 325 -96 707 -83 1030 36
52 19 96 36 96 36 1 1 22 -35 48 -80z" />
  </g>
</svg>
