<svg xmlns="http://www.w3.org/2000/svg" width="24" height="24" fill="none" stroke="currentColor" stroke-linecap="round" stroke-linejoin="round" stroke-width="2" class="icon icon-tabler icons-tabler-outline icon-tabler-barbell"><path stroke="none" d="M0 0h24v24H0z"/><path d="M2 12h1M6 8H4a1 1 0 0 0-1 1v6a1 1 0 0 0 1 1h2M6 7v10a1 1 0 0 0 1 1h1a1 1 0 0 0 1-1V7a1 1 0 0 0-1-1H7a1 1 0 0 0-1 1M9 12h6M15 7v10a1 1 0 0 0 1 1h1a1 1 0 0 0 1-1V7a1 1 0 0 0-1-1h-1a1 1 0 0 0-1 1M18 8h2a1 1 0 0 1 1 1v6a1 1 0 0 1-1 1h-2M22 12h-1"/></svg>