<svg xmlns="http://www.w3.org/2000/svg" width="24" height="24" fill="none" stroke="currentColor" stroke-linecap="round" stroke-linejoin="round" stroke-width="2" class="icon icon-tabler icons-tabler-outline icon-tabler-building-carousel"><path stroke="none" d="M0 0h24v24H0z"/><path d="M6 12a6 6 0 1 0 12 0 6 6 0 1 0-12 0"/><path d="M3 8a2 2 0 1 0 4 0 2 2 0 1 0-4 0M10 4a2 2 0 1 0 4 0 2 2 0 1 0-4 0M17 8a2 2 0 1 0 4 0 2 2 0 1 0-4 0M3 16a2 2 0 1 0 4 0 2 2 0 1 0-4 0M17 16a2 2 0 1 0 4 0 2 2 0 1 0-4 0M8 22l4-10 4 10"/></svg>