<svg xmlns="http://www.w3.org/2000/svg" width="24" height="24" fill="none" stroke="currentColor" stroke-linecap="round" stroke-linejoin="round" stroke-width="2" class="icon icon-tabler icons-tabler-outline icon-tabler-calendar-heart"><path stroke="none" d="M0 0h24v24H0z"/><path d="M11.5 21H6a2 2 0 0 1-2-2V7a2 2 0 0 1 2-2h12a2 2 0 0 1 2 2v4M16 3v4M8 3v4M4 11h16"/><path d="m18 22 3.35-3.284a2.143 2.143 0 0 0 .005-3.071 2.24 2.24 0 0 0-3.129-.006l-.224.22-.223-.22a2.24 2.24 0 0 0-3.128-.006 2.143 2.143 0 0 0-.006 3.071z"/></svg>