<svg xmlns="http://www.w3.org/2000/svg" width="24" height="24" fill="none" stroke="currentColor" stroke-linecap="round" stroke-linejoin="round" stroke-width="2" class="icon icon-tabler icons-tabler-outline icon-tabler-camera-search"><path stroke="none" d="M0 0h24v24H0z"/><path d="M11.5 20H5a2 2 0 0 1-2-2V9a2 2 0 0 1 2-2h1a2 2 0 0 0 2-2 1 1 0 0 1 1-1h6a1 1 0 0 1 1 1 2 2 0 0 0 2 2h1a2 2 0 0 1 2 2v2.5"/><path d="M14.757 11.815a3 3 0 1 0-3.431 4.109M15 18a3 3 0 1 0 6 0 3 3 0 1 0-6 0M20.2 20.2 22 22"/></svg>