<svg xmlns="http://www.w3.org/2000/svg" width="24" height="24" fill="none" stroke="currentColor" stroke-linecap="round" stroke-linejoin="round" stroke-width="2" class="icon icon-tabler icons-tabler-outline icon-tabler-chart-grid-dots"><path stroke="none" d="M0 0h24v24H0z"/><path d="M16 6a2 2 0 1 0 4 0 2 2 0 1 0-4 0M4 12a2 2 0 1 0 4 0 2 2 0 1 0-4 0M4 18a2 2 0 1 0 4 0 2 2 0 1 0-4 0M16 18a2 2 0 1 0 4 0 2 2 0 1 0-4 0M8 18h8M18 20v1M18 3v1M6 20v1M6 10V3M12 3v18M18 8v8M8 12h13M21 6h-1M16 6H3M3 12h1M20 18h1M3 18h1M6 14v2"/></svg>