<svg xmlns="http://www.w3.org/2000/svg" width="22" height="22" viewBox="0 0 200 200">
  <title>LinkedIn</title>
  <path
    d="M185.2 0H14.8C6.6 0 0 6.4 0 14.3v171.3c0 7.9 6.6 14.3 14.8 14.3h170.4c8.1 0 14.8-6.4 14.8-14.3V14.3C199.9 6.4 193.3 0 185.2 0zM60.6 167.3H30.4V77.1h30.2v90.2zM45.5 64.8h-.2c-10.1 0-16.7-6.9-16.7-15.6 0-8.8 6.7-15.6 17.1-15.6 10.3 0 16.7 6.7 16.9 15.6 0 8.6-6.5 15.6-17.1 15.6zm124 102.5h-30.2V119c0-12.1-4.4-20.4-15.3-20.4-8.4 0-13.3 5.6-15.5 11-.8 1.9-1 4.6-1 7.3v50.4H77.3s.4-81.8 0-90.3h30.2v12.8c4-6.1 11.2-14.9 27.2-14.9 19.9 0 34.8 12.9 34.8 40.6v51.8zm-62.2-77.1c0-.1.1-.2.2-.3v.3h-.2z"
    fill="currentColor"></path>
</svg>