<!--
  Tabler Icons 3.4.0 by tabler - https://tabler.io
  License - https://github.com/tabler/tabler-icons/blob/master/LICENSE
-->

<svg xmlns="http://www.w3.org/2000/svg" xmlns:xlink="http://www.w3.org/1999/xlink" aria-hidden="true">
 <symbol id="alert-circle" width="24" height="24" fill="none" stroke="currentColor" stroke-linecap="round" stroke-linejoin="round" stroke-width="2" class="icon icon-tabler icons-tabler-outline icon-tabler-alert-circle"> <path stroke="none" d="M0 0h24v24H0z" /> <path d="M3 12a9 9 0 1 0 18 0 9 9 0 0 0-18 0m9-4v4m0 4h.01" /> </symbol>
 <symbol id="alert-hexagon" width="24" height="24" fill="none" stroke="currentColor" stroke-linecap="round" stroke-linejoin="round" stroke-width="2" class="icon icon-tabler icons-tabler-outline icon-tabler-alert-hexagon"> <path stroke="none" d="M0 0h24v24H0z" /> <path d="M19.875 6.27c.7.398 1.13 1.143 1.125 1.948v7.284c0 .809-.443 1.555-1.158 1.948l-6.75 4.27a2.27 2.27 0 0 1-2.184 0l-6.75-4.27A2.23 2.23 0 0 1 3 15.502V8.217c0-.809.443-1.554 1.158-1.947l6.75-3.98a2.33 2.33 0 0 1 2.25 0l6.75 3.98zM12 8v4m0 4h.01" /> </symbol>
 <symbol id="alert-octagon" width="24" height="24" fill="none" stroke="currentColor" stroke-linecap="round" stroke-linejoin="round" stroke-width="2" class="icon icon-tabler icons-tabler-outline icon-tabler-alert-octagon"> <path stroke="none" d="M0 0h24v24H0z" /> <path d="m12.802 2.165 5.575 2.389c.48.206.863.589 1.07 1.07l2.388 5.574c.22.512.22 1.092 0 1.604l-2.389 5.575c-.206.48-.589.863-1.07 1.07l-5.574 2.388c-.512.22-1.092.22-1.604 0l-5.575-2.389a2.04 2.04 0 0 1-1.07-1.07l-2.388-5.574a2.04 2.04 0 0 1 0-1.604l2.389-5.575c.206-.48.589-.863 1.07-1.07l5.574-2.388a2.04 2.04 0 0 1 1.604 0M12 8v4m0 4h.01" /> </symbol>
 <symbol id="alert-triangle" width="24" height="24" fill="none" stroke="currentColor" stroke-linecap="round" stroke-linejoin="round" stroke-width="2" class="icon icon-tabler icons-tabler-outline icon-tabler-alert-triangle"> <path stroke="none" d="M0 0h24v24H0z" /> <path d="M12 9v4m-1.637-9.409L2.257 17.125a1.914 1.914 0 0 0 1.636 2.871h16.214a1.914 1.914 0 0 0 1.636-2.87L13.637 3.59a1.914 1.914 0 0 0-3.274 0zM12 16h.01" /> </symbol>
 <symbol id="braces" width="24" height="24" fill="none" stroke="currentColor" stroke-linecap="round" stroke-linejoin="round" stroke-width="2" class="icon icon-tabler icons-tabler-outline icon-tabler-braces"> <path stroke="none" d="M0 0h24v24H0z" /> <path d="M7 4a2 2 0 0 0-2 2v3a2 3 0 0 1-2 3 2 3 0 0 1 2 3v3a2 2 0 0 0 2 2M17 4a2 2 0 0 1 2 2v3a2 3 0 0 0 2 3 2 3 0 0 0-2 3v3a2 2 0 0 1-2 2" /> </symbol>
 <symbol id="brackets" width="24" height="24" fill="none" stroke="currentColor" stroke-linecap="round" stroke-linejoin="round" stroke-width="2" class="icon icon-tabler icons-tabler-outline icon-tabler-brackets"> <path stroke="none" d="M0 0h24v24H0z" /> <path d="M8 4H5v16h3m8-16h3v16h-3" /> </symbol>
 <symbol id="brand-github" width="24" height="24" fill="none" stroke="currentColor" stroke-linecap="round" stroke-linejoin="round" stroke-width="2" class="icon icon-tabler icons-tabler-outline icon-tabler-brand-github"> <path stroke="none" d="M0 0h24v24H0z"/> <path d="M9 19c-4.3 1.4-4.3-2.5-6-3m12 5v-3.5c0-1 .1-1.4-.5-2 2.8-.3 5.5-1.4 5.5-6a4.6 4.6 0 0 0-1.3-3.2 4.2 4.2 0 0 0-.1-3.2s-1.1-.3-3.5 1.3a12.3 12.3 0 0 0-6.2 0C6.5 2.8 5.4 3.1 5.4 3.1a4.2 4.2 0 0 0-.1 3.2A4.6 4.6 0 0 0 4 9.5c0 4.6 2.7 5.7 5.5 6-.6.6-.6 1.2-.5 2V21"/> </symbol>
 <symbol id="brand-mastodon" width="24" height="24" fill="none" stroke="currentColor" stroke-linecap="round" stroke-linejoin="round" stroke-width="2" class="icon icon-tabler icons-tabler-outline icon-tabler-brand-mastodon"> <path stroke="none" d="M0 0h24v24H0z"/> <path d="M18.648 15.254C16.832 17.017 12 16.88 12 16.88a18.3 18.3 0 0 1-3.288-.256q1.69 2.977 8.982 2.475c-1.945 2.013-13.598 5.257-13.668-7.636L4 10.309c0-3.036.023-4.115 1.352-5.633C7.023 2.766 12 3.01 12 3.01s4.977-.243 6.648 1.667C19.977 6.195 20 7.274 20 10.31s-.456 4.074-1.352 4.944"/> <path d="M12 11.204V8.278C12 7.02 11.105 6 10 6S8 7.02 8 8.278V13m4-4.722C12 7.02 12.895 6 14 6s2 1.02 2 2.278V13"/> </symbol>
 <symbol id="brand-threads" width="24" height="24" fill="none" stroke="currentColor" stroke-linecap="round" stroke-linejoin="round" stroke-width="2" class="icon icon-tabler icons-tabler-outline icon-tabler-brand-threads"> <path stroke="none" d="M0 0h24v24H0z"/> <path d="M19 7.5Q17 3 12 3c-5 0-8 2.5-8 9s3.5 9 8 9 7-3 7-5-1-5-7-5c-2.5 0-3 1.25-3 2.5C9 15 10 16 11.5 16c2.5 0 3.5-1.5 3.5-5s-2-4-3-4-1.833.333-2.5 1"/> </symbol>
 <symbol id="brand-twitch" width="24" height="24" fill="none" stroke="currentColor" stroke-linecap="round" stroke-linejoin="round" stroke-width="2" class="icon icon-tabler icons-tabler-outline icon-tabler-brand-twitch"> <path stroke="none" d="M0 0h24v24H0z"/> <path d="M4 5v11a1 1 0 0 0 1 1h2v4l4-4h5.584c.266 0 .52-.105.707-.293l2.415-2.414c.187-.188.293-.442.293-.708V5a1 1 0 0 0-1-1h-14a1 1 0 0 0-1 1zm12 3v4m-4-4v4"/> </symbol>
 <symbol id="brand-twitter" width="24" height="24" fill="none" stroke="currentColor" stroke-linecap="round" stroke-linejoin="round" stroke-width="2" class="icon icon-tabler icons-tabler-outline icon-tabler-brand-twitter"> <path stroke="none" d="M0 0h24v24H0z"/> <path d="M22 4.01c-1 .49-1.98.689-3 .99-1.121-1.265-2.783-1.335-4.38-.737S11.977 6.323 12 8v1c-3.245.083-6.135-1.395-8-4 0 0-4.182 7.433 4 11-1.872 1.247-3.739 2.088-6 2 3.308 1.803 6.913 2.423 10.034 1.517 3.58-1.04 6.522-3.723 7.651-7.742a13.8 13.8 0 0 0 .497-3.753c0-.249 1.51-2.772 1.818-4.013z"/> </symbol>
 <symbol id="bulb" width="24" height="24" fill="none" stroke="currentColor" stroke-linecap="round" stroke-linejoin="round" stroke-width="2" class="icon icon-tabler icons-tabler-outline icon-tabler-bulb"> <path stroke="none" d="M0 0h24v24H0z" /> <path d="M3 12h1m8-9v1m8 8h1M5.6 5.6l.7.7m12.1-.7-.7.7M9 16a5 5 0 1 1 6 0 3.5 3.5 0 0 0-1 3 2 2 0 0 1-4 0 3.5 3.5 0 0 0-1-3m.7 1h4.6" /> </symbol>
 <symbol id="check" width="24" height="24" fill="none" stroke="currentColor" stroke-linecap="round" stroke-linejoin="round" stroke-width="2" class="icon icon-tabler icons-tabler-outline icon-tabler-check"> <path stroke="none" d="M0 0h24v24H0z"/> <path d="m5 12 5 5L20 7"/> </symbol>
 <symbol id="checkbox" width="24" height="24" fill="none" stroke="currentColor" stroke-linecap="round" stroke-linejoin="round" stroke-width="2" class="icon icon-tabler icons-tabler-outline icon-tabler-checkbox"> <path stroke="none" d="M0 0h24v24H0z"/> <path d="m9 11 3 3 8-8"/> <path d="M20 12v6a2 2 0 0 1-2 2H6a2 2 0 0 1-2-2V6a2 2 0 0 1 2-2h9"/> </symbol>
 <symbol id="chevron-down" width="24" height="24" fill="none" stroke="currentColor" stroke-linecap="round" stroke-linejoin="round" stroke-width="2" class="icon icon-tabler icons-tabler-outline icon-tabler-chevron-down"> <path stroke="none" d="M0 0h24v24H0z"/> <path d="m6 9 6 6 6-6"/> </symbol>
 <symbol id="chevron-left" width="24" height="24" fill="none" stroke="currentColor" stroke-linecap="round" stroke-linejoin="round" stroke-width="2" class="icon icon-tabler icons-tabler-outline icon-tabler-chevron-left"> <path stroke="none" d="M0 0h24v24H0z"/> <path d="m15 6-6 6 6 6"/> </symbol>
 <symbol id="chevron-right" width="24" height="24" fill="none" stroke="currentColor" stroke-linecap="round" stroke-linejoin="round" stroke-width="2" class="icon icon-tabler icons-tabler-outline icon-tabler-chevron-right"> <path stroke="none" d="M0 0h24v24H0z"/> <path d="m9 6 6 6-6 6"/> </symbol>
 <symbol id="chevron-up" width="24" height="24" fill="none" stroke="currentColor" stroke-linecap="round" stroke-linejoin="round" stroke-width="2" class="icon icon-tabler icons-tabler-outline icon-tabler-chevron-up"> <path stroke="none" d="M0 0h24v24H0z"/> <path d="m6 15 6-6 6 6"/> </symbol>
 <symbol id="code" width="24" height="24" fill="none" stroke="currentColor" stroke-linecap="round" stroke-linejoin="round" stroke-width="2" class="icon icon-tabler icons-tabler-outline icon-tabler-code"> <path stroke="none" d="M0 0h24v24H0z" /> <path d="m7 8-4 4 4 4m10-8 4 4-4 4M14 4l-4 16" /> </symbol>
 <symbol id="copy-check" width="24" height="24" fill="none" stroke="currentColor" stroke-linecap="round" stroke-linejoin="round" stroke-width="2" class="icon icon-tabler icons-tabler-outline icon-tabler-copy-check"> <path stroke="none" d="M0 0h24v24H0z"/> <path stroke="none" d="M0 0h24v24H0z"/> <path d="M7 9.667A2.667 2.667 0 0 1 9.667 7h8.666A2.667 2.667 0 0 1 21 9.667v8.666A2.667 2.667 0 0 1 18.333 21H9.667A2.667 2.667 0 0 1 7 18.333z"/> <path d="M4.012 16.737A2 2 0 0 1 3 15V5c0-1.1.9-2 2-2h10c.75 0 1.158.385 1.5 1M11 14l2 2 4-4"/> </symbol>
 <symbol id="copy" width="24" height="24" fill="none" stroke="currentColor" stroke-linecap="round" stroke-linejoin="round" stroke-width="2" class="icon icon-tabler icons-tabler-outline icon-tabler-copy"> <path stroke="none" d="M0 0h24v24H0z"/> <path d="M7 9.667A2.667 2.667 0 0 1 9.667 7h8.666A2.667 2.667 0 0 1 21 9.667v8.666A2.667 2.667 0 0 1 18.333 21H9.667A2.667 2.667 0 0 1 7 18.333z"/> <path d="M4.012 16.737A2 2 0 0 1 3 15V5c0-1.1.9-2 2-2h10c.75 0 1.158.385 1.5 1"/> </symbol>
 <symbol id="device-desktop" width="24" height="24" fill="none" stroke="currentColor" stroke-linecap="round" stroke-linejoin="round" stroke-width="2" class="icon icon-tabler icons-tabler-outline icon-tabler-device-desktop"> <path stroke="none" d="M0 0h24v24H0z" /> <path d="M3 5a1 1 0 0 1 1-1h16a1 1 0 0 1 1 1v10a1 1 0 0 1-1 1H4a1 1 0 0 1-1-1zm4 15h10m-8-4v4m6-4v4" /> </symbol>
 <symbol id="info-circle" width="24" height="24" fill="none" stroke="currentColor" stroke-linecap="round" stroke-linejoin="round" stroke-width="2" class="icon icon-tabler icons-tabler-outline icon-tabler-info-circle"> <path stroke="none" d="M0 0h24v24H0z" /> <path d="M3 12a9 9 0 1 0 18 0 9 9 0 0 0-18 0m9-3h.01" /> <path d="M11 12h1v4h1" /> </symbol>
 <symbol id="list" width="24" height="24" fill="none" stroke="currentColor" stroke-linecap="round" stroke-linejoin="round" stroke-width="2" class="icon icon-tabler icons-tabler-outline icon-tabler-list"> <path stroke="none" d="M0 0h24v24H0z" /> <path d="M9 6h11M9 12h11M9 18h11M5 6v.01M5 12v.01M5 18v.01" /> </symbol>
 <symbol id="mail" width="24" height="24" fill="none" stroke="currentColor" stroke-linecap="round" stroke-linejoin="round" stroke-width="2" class="icon icon-tabler icons-tabler-outline icon-tabler-mail"> <path stroke="none" d="M0 0h24v24H0z"/> <path d="M3 7a2 2 0 0 1 2-2h14a2 2 0 0 1 2 2v10a2 2 0 0 1-2 2H5a2 2 0 0 1-2-2z"/> <path d="m3 7 9 6 9-6"/> </symbol>
 <symbol id="menu-2" width="24" height="24" fill="none" stroke="currentColor" stroke-linecap="round" stroke-linejoin="round" stroke-width="2" class="icon icon-tabler icons-tabler-outline icon-tabler-menu-2"> <path stroke="none" d="M0 0h24v24H0z"/> <path d="M4 6h16M4 12h16M4 18h16"/> </symbol>
 <symbol id="menu" width="24" height="24" fill="none" stroke="currentColor" stroke-linecap="round" stroke-linejoin="round" stroke-width="2" class="icon icon-tabler icons-tabler-outline icon-tabler-menu"> <path stroke="none" d="M0 0h24v24H0z"/> <path d="M4 8h16M4 16h16"/> </symbol>
 <symbol id="moon" width="24" height="24" fill="none" stroke="currentColor" stroke-linecap="round" stroke-linejoin="round" stroke-width="2" class="icon icon-tabler icons-tabler-outline icon-tabler-moon"> <path stroke="none" d="M0 0h24v24H0z" /> <path d="M12 3h.393a7.5 7.5 0 0 0 7.92 12.446A9 9 0 1 1 12 2.992z" /> </symbol>
 <symbol id="square-check" width="24" height="24" fill="none" stroke="currentColor" stroke-linecap="round" stroke-linejoin="round" stroke-width="2" class="icon icon-tabler icons-tabler-outline icon-tabler-square-check"> <path stroke="none" d="M0 0h24v24H0z"/> <path d="M3 5a2 2 0 0 1 2-2h14a2 2 0 0 1 2 2v14a2 2 0 0 1-2 2H5a2 2 0 0 1-2-2z"/> <path d="m9 12 2 2 4-4"/> </symbol>
 <symbol id="sun" width="24" height="24" fill="none" stroke="currentColor" stroke-linecap="round" stroke-linejoin="round" stroke-width="2" class="icon icon-tabler icons-tabler-outline icon-tabler-sun"> <path stroke="none" d="M0 0h24v24H0z" /> <path d="M8 12a4 4 0 1 0 8 0 4 4 0 1 0-8 0m-5 0h1m8-9v1m8 8h1m-9 8v1M5.6 5.6l.7.7m12.1-.7-.7.7m0 11.4.7.7m-12.1-.7-.7.7" /> </symbol>
</svg>